# xmcd CD database file
#
# Track frame offsets:
#	150
#	25492
#	48782
#	61160
#	80855
#	114804
#	133727
#	148167
#	160647
#
# Disc length: 2292 seconds
#
# Revision: 0
# Processed by: cddbd v1.5.1PL0 Copyright (c) Steve Scherf et al.
# Submitted via: CDex 1.51
#
DISCID=7408f209
DTITLE=Pappo - Jaf - Vitico - Moro - Riff
DYEAR=1987
DGENRE=Blues
TTITLE0=Dios Devorador
TTITLE1=Apiadate De El, Señor
TTITLE2=La Espada Sagrada
TTITLE3=Ojo Animal
TTITLE4=Elena X Se Hacia Llamar
TTITLE5=Nacido Para Ser Asi
TTITLE6=No Me Fue Muy Bien En El Extranjero
TTITLE7=Ex-Terminador
TTITLE8=Parece Que Viene Bien
EXTD=YEAR: 1987
EXTT0=
EXTT1=
EXTT2=
EXTT3=
EXTT4=
EXTT5=
EXTT6=
EXTT7=
EXTT8=
PLAYORDER=
